<svg xmlns="http://www.w3.org/2000/svg" viewBox="0 0 600 340" font-family="'Inter', 'Helvetica Neue', sans-serif">
  <defs>
    <style>
      .axis { stroke: #d1d5db; stroke-width: 1; }
      .tick { font-size: 11px; fill: #6b7280; }
      .axis-label { font-size: 12px; fill: #374151; font-weight: 500; }
      .curve { fill: none; stroke-width: 2.2; stroke-linecap: round; }
    </style>
  </defs>
  
  <line x1="60" y1="290" x2="570" y2="290" class="axis"/>
  <line x1="60" y1="30" x2="60" y2="290" class="axis"/>
  
  <!-- Biome annotations -->
  <rect x="60.0" y="35" width="76.5" height="250" fill="#fef3c7" fill-opacity="0.25" rx="4"/>
  <text x="98.25" y="282" font-size="9" fill="#92400e" text-anchor="middle">Desert</text>
  
  <rect x="136.5" y="35" width="127.5" height="250" fill="#dcfce7" fill-opacity="0.25" rx="4"/>
  <text x="200.25" y="282" font-size="9" fill="#166534" text-anchor="middle">Savanna</text>
  
  <rect x="264.0" y="35" width="306.0" height="250" fill="#d1fae5" fill-opacity="0.2" rx="4"/>
  <text x="366.0" y="282" font-size="9" fill="#065f46" text-anchor="middle">Forest</text>
  
  <!-- Curves -->
  <path d="M 60.0 290.0 L 62.5 288.7 L 65.1 287.4 L 67.7 286.1 L 70.2 284.8 L 72.8 283.5 L 75.3 282.2 L 77.8 280.9 L 80.4 279.5 L 83.0 278.2 L 85.5 276.9 L 88.1 275.6 L 90.6 274.3 L 93.2 273.0 L 95.7 271.7 L 98.2 270.4 L 100.8 269.1 L 103.3 267.8 L 105.9 266.5 L 108.5 265.2 L 111.0 263.9 L 113.6 262.6 L 116.1 261.3 L 118.7 259.9 L 121.2 258.6 L 123.8 257.3 L 126.3 256.0 L 128.9 254.7 L 131.4 253.4 L 133.9 252.1 L 136.5 250.8 L 139.1 249.5 L 141.6 248.2 L 144.2 246.9 L 146.7 245.6 L 149.2 244.3 L 151.8 243.0 L 154.3 241.7 L 156.9 240.4 L 159.4 239.0 L 162.0 237.7 L 164.6 236.4 L 167.1 235.1 L 169.6 233.8 L 172.2 232.5 L 174.8 231.2 L 177.3 229.9 L 179.9 228.6 L 182.4 227.3 L 185.0 226.0 L 187.5 224.7 L 190.1 223.4 L 192.6 222.1 L 195.2 220.8 L 197.7 219.4 L 200.2 218.1 L 202.8 216.8 L 205.4 215.5 L 207.9 214.2 L 210.5 212.9 L 213.0 211.6 L 215.6 210.3 L 218.1 209.0 L 220.7 207.7 L 223.2 206.4 L 225.8 205.1 L 228.3 203.8 L 230.9 202.5 L 233.4 201.2 L 236.0 199.8 L 238.5 198.5 L 241.1 197.2 L 243.6 195.9 L 246.2 194.6 L 248.7 193.3 L 251.2 192.0 L 253.8 190.7 L 256.4 189.4 L 258.9 188.1 L 261.5 186.8 L 264.0 185.5 L 266.5 184.2 L 269.1 182.9 L 271.6 181.6 L 274.2 180.3 L 276.8 178.9 L 279.3 177.6 L 281.9 176.3 L 284.4 175.0 L 287.0 173.7 L 289.5 172.4 L 292.0 171.1 L 294.6 169.8 L 297.1 168.5 L 299.7 167.2 L 302.2 165.9 L 304.8 164.6 L 307.4 163.3 L 309.9 162.0 L 312.4 160.7 L 315.0 159.3 L 317.6 158.0 L 320.1 156.7 L 322.7 155.4 L 325.2 154.1 L 327.8 152.8 L 330.3 151.5 L 332.9 150.2 L 335.4 148.9 L 338.0 147.6 L 340.5 146.3 L 343.1 145.0 L 345.6 143.7 L 348.2 142.4 L 350.7 141.1 L 353.2 139.7 L 355.8 138.4 L 358.4 137.1 L 360.9 135.8 L 363.4 134.5 L 366.0 133.2 L 368.6 131.9 L 371.1 130.6 L 373.6 129.3 L 376.2 128.0 L 378.8 126.7 L 381.3 125.4 L 383.9 124.1 L 386.4 122.8 L 388.9 121.5 L 391.5 120.2 L 394.1 118.8 L 396.6 117.5 L 399.2 116.2 L 401.7 114.9 L 404.2 113.6 L 406.8 112.3 L 409.4 111.0 L 411.9 109.7 L 414.5 108.4 L 417.0 107.1 L 419.6 105.8 L 422.1 104.5 L 424.7 103.2 L 427.2 101.9 L 429.8 100.6 L 432.3 99.2 L 434.9 97.9 L 437.4 96.6 L 439.9 95.3 L 442.5 94.0 L 445.1 92.7 L 447.6 91.4 L 450.2 90.1 L 452.7 88.8 L 455.2 87.5 L 457.8 86.2 L 460.4 84.9 L 462.9 83.6 L 465.5 82.3 L 468.0 81.0 L 470.6 79.6 L 473.1 78.3 L 475.7 77.0 L 478.2 75.7 L 480.8 74.4 L 483.3 73.1 L 485.8 71.8 L 488.4 70.5 L 491.0 69.2 L 493.5 67.9 L 496.1 66.6 L 498.6 65.3 L 501.1 64.0 L 503.7 62.7 L 506.2 61.4 L 508.8 60.1 L 511.4 58.7 L 513.9 57.4 L 516.5 56.1 L 519.0 54.8 L 521.5 53.5 L 524.1 52.2 L 526.7 50.9 L 529.2 49.6 L 531.8 48.3 L 534.3 47.0 L 536.8 45.7 L 539.4 44.4 L 542.0 43.1 L 544.5 41.8 L 547.0 40.5 L 549.6 39.1 L 552.2 37.8 L 554.7 36.5 L 557.2 35.2 L 559.8 33.9 L 562.4 32.6 L 564.9 31.3 L 567.5 30.0" class="curve" stroke="#ef4444" stroke-dasharray="6,3"/>
  <path d="M 60.0 290.0 L 62.5 30.0 L 65.1 45.3 L 67.7 99.5 L 70.2 148.3 L 72.8 185.8 L 75.3 213.7 L 77.8 234.1 L 80.4 249.1 L 83.0 260.1 L 85.5 268.1 L 88.1 274.0 L 90.6 278.3 L 93.2 281.4 L 95.7 283.7 L 98.2 285.4 L 100.8 286.6 L 103.3 287.5 L 105.9 288.2 L 108.5 288.7 L 111.0 289.0 L 113.6 289.3 L 116.1 289.5 L 118.7 289.6 L 121.2 289.7 L 123.8 289.8 L 126.3 289.9 L 128.9 289.9 L 131.4 289.9 L 133.9 289.9 L 136.5 290.0 L 139.1 290.0 L 141.6 290.0 L 144.2 290.0 L 146.7 290.0 L 149.2 290.0 L 151.8 290.0 L 154.3 290.0 L 156.9 290.0 L 159.4 290.0 L 162.0 290.0 L 164.6 290.0 L 167.1 290.0 L 169.6 290.0 L 172.2 290.0 L 174.8 290.0 L 177.3 290.0 L 179.9 290.0 L 182.4 290.0 L 185.0 290.0 L 187.5 290.0 L 190.1 290.0 L 192.6 290.0 L 195.2 290.0 L 197.7 290.0 L 200.2 290.0 L 202.8 290.0 L 205.4 290.0 L 207.9 290.0 L 210.5 290.0 L 213.0 290.0 L 215.6 290.0 L 218.1 290.0 L 220.7 290.0 L 223.2 290.0 L 225.8 290.0 L 228.3 290.0 L 230.9 290.0 L 233.4 290.0 L 236.0 290.0 L 238.5 290.0 L 241.1 290.0 L 243.6 290.0 L 246.2 290.0 L 248.7 290.0 L 251.2 290.0 L 253.8 290.0 L 256.4 290.0 L 258.9 290.0 L 261.5 290.0 L 264.0 290.0 L 266.5 290.0 L 269.1 290.0 L 271.6 290.0 L 274.2 290.0 L 276.8 290.0 L 279.3 290.0 L 281.9 290.0 L 284.4 290.0 L 287.0 290.0 L 289.5 290.0 L 292.0 290.0 L 294.6 290.0 L 297.1 290.0 L 299.7 290.0 L 302.2 290.0 L 304.8 290.0 L 307.4 290.0 L 309.9 290.0 L 312.4 290.0 L 315.0 290.0 L 317.6 290.0 L 320.1 290.0 L 322.7 290.0 L 325.2 290.0 L 327.8 290.0 L 330.3 290.0 L 332.9 290.0 L 335.4 290.0 L 338.0 290.0 L 340.5 290.0 L 343.1 290.0 L 345.6 290.0 L 348.2 290.0 L 350.7 290.0 L 353.2 290.0 L 355.8 290.0 L 358.4 290.0 L 360.9 290.0 L 363.4 290.0 L 366.0 290.0 L 368.6 290.0 L 371.1 290.0 L 373.6 290.0 L 376.2 290.0 L 378.8 290.0 L 381.3 290.0 L 383.9 290.0 L 386.4 290.0 L 388.9 290.0 L 391.5 290.0 L 394.1 290.0 L 396.6 290.0 L 399.2 290.0 L 401.7 290.0 L 404.2 290.0 L 406.8 290.0 L 409.4 290.0 L 411.9 290.0 L 414.5 290.0 L 417.0 290.0 L 419.6 290.0 L 422.1 290.0 L 424.7 290.0 L 427.2 290.0 L 429.8 290.0 L 432.3 290.0 L 434.9 290.0 L 437.4 290.0 L 439.9 290.0 L 442.5 290.0 L 445.1 290.0 L 447.6 290.0 L 450.2 290.0 L 452.7 290.0 L 455.2 290.0 L 457.8 290.0 L 460.4 290.0 L 462.9 290.0 L 465.5 290.0 L 468.0 290.0 L 470.6 290.0 L 473.1 290.0 L 475.7 290.0 L 478.2 290.0 L 480.8 290.0 L 483.3 290.0 L 485.8 290.0 L 488.4 290.0 L 491.0 290.0 L 493.5 290.0 L 496.1 290.0 L 498.6 290.0 L 501.1 290.0 L 503.7 290.0 L 506.2 290.0 L 508.8 290.0 L 511.4 290.0 L 513.9 290.0 L 516.5 290.0 L 519.0 290.0 L 521.5 290.0 L 524.1 290.0 L 526.7 290.0 L 529.2 290.0 L 531.8 290.0 L 534.3 290.0 L 536.8 290.0 L 539.4 290.0 L 542.0 290.0 L 544.5 290.0 L 547.0 290.0 L 549.6 290.0 L 552.2 290.0 L 554.7 290.0 L 557.2 290.0 L 559.8 290.0 L 562.4 290.0 L 564.9 290.0 L 567.5 290.0" class="curve" stroke="#2563eb"/>
  
  <!-- Legend -->
  <line x1="380" y1="42" x2="410" y2="42" stroke="#ef4444" stroke-width="2.2" stroke-dasharray="6,3"/>
  <text x="416" y="46" font-size="11" fill="#374151">Original (linear in AGB)</text>
  <line x1="380" y1="60" x2="410" y2="60" stroke="#2563eb" stroke-width="2.2"/>
  <text x="416" y="64" font-size="11" fill="#374151">Fuel hump (this work)</text>
  
  <!-- Peak annotation -->
  <circle cx="149.25" cy="289.99114469711975" r="3" fill="#2563eb"/>
  <line x1="149.25" y1="284.99114469711975" x2="187.5" y2="13.0" stroke="#2563eb" stroke-width="0.8"/>
  <text x="191.5" y="11.0" font-size="9.5" fill="#1e40af" font-weight="500">peak fire at</text>
  <text x="191.5" y="23.0" font-size="9.5" fill="#1e40af" font-weight="500">intermediate biomass</text>
  
  <text x="300.0" y="334" class="axis-label" text-anchor="middle">Above-ground biomass (kg C/m²)</text>
  <text x="16" y="170.0" class="axis-label" text-anchor="middle" transform="rotate(-90, 16, 170.0)">Fire probability (normalized)</text>
</svg>