<svg xmlns="http://www.w3.org/2000/svg" viewBox="0 0 600 340" font-family="'Inter', 'Helvetica Neue', sans-serif">
  <defs>
    <style>
      .axis { stroke: #d1d5db; stroke-width: 1; }
      .tick { font-size: 11px; fill: #6b7280; }
      .axis-label { font-size: 12px; fill: #374151; font-weight: 500; }
      .curve { fill: none; stroke-width: 2.2; stroke-linecap: round; }
    </style>
  </defs>
  
  <!-- Grid lines -->
  <line x1="60" y1="290" x2="570" y2="290" class="axis"/>
  <line x1="60" y1="30" x2="60" y2="290" class="axis"/>
  
  <!-- X ticks -->
  <line x1="60.0" y1="290" x2="60.0" y2="295" stroke="#d1d5db"/><text x="60.0" y="308" class="tick" text-anchor="middle">-20°</text><line x1="138.46153846153845" y1="290" x2="138.46153846153845" y2="295" stroke="#d1d5db"/><text x="138.46153846153845" y="308" class="tick" text-anchor="middle">-10°</text><line x1="216.92307692307693" y1="290" x2="216.92307692307693" y2="295" stroke="#d1d5db"/><text x="216.92307692307693" y="308" class="tick" text-anchor="middle">0°</text><line x1="295.38461538461536" y1="290" x2="295.38461538461536" y2="295" stroke="#d1d5db"/><text x="295.38461538461536" y="308" class="tick" text-anchor="middle">10°</text><line x1="373.84615384615387" y1="290" x2="373.84615384615387" y2="295" stroke="#d1d5db"/><text x="373.84615384615387" y="308" class="tick" text-anchor="middle">20°</text><line x1="452.3076923076923" y1="290" x2="452.3076923076923" y2="295" stroke="#d1d5db"/><text x="452.3076923076923" y="308" class="tick" text-anchor="middle">30°</text><line x1="530.7692307692307" y1="290" x2="530.7692307692307" y2="295" stroke="#d1d5db"/><text x="530.7692307692307" y="308" class="tick" text-anchor="middle">40°</text>
  
  <!-- Y grid lines (light) -->
  <line x1="60" y1="238.0" x2="570" y2="238.0" stroke="#f3f4f6" stroke-width="1"/><line x1="60" y1="186.0" x2="570" y2="186.0" stroke="#f3f4f6" stroke-width="1"/><line x1="60" y1="134.0" x2="570" y2="134.0" stroke="#f3f4f6" stroke-width="1"/><line x1="60" y1="82.0" x2="570" y2="82.0" stroke="#f3f4f6" stroke-width="1"/><line x1="60" y1="30.0" x2="570" y2="30.0" stroke="#f3f4f6" stroke-width="1"/>
  
  <!-- Freezing annotation -->
  <line x1="216.92307692307693" y1="30" x2="216.92307692307693" y2="290" stroke="#93c5fd" stroke-width="1" stroke-dasharray="4,3"/>
  <text x="220.92307692307693" y="44" font-size="9" fill="#3b82f6">0°C</text>
  
  <!-- Curves -->
  <path d="M 60.0 290.0 L 67.8 290.0 L 75.7 290.0 L 83.5 290.0 L 91.4 290.0 L 99.2 290.0 L 107.1 290.0 L 114.9 290.0 L 122.8 290.0 L 130.6 290.0 L 138.5 290.0 L 146.3 290.0 L 154.2 290.0 L 162.0 290.0 L 169.8 290.0 L 177.7 290.0 L 185.5 290.0 L 193.4 290.0 L 201.2 290.0 L 209.1 290.0 L 216.9 290.0 L 224.8 286.2 L 232.6 286.0 L 240.5 285.8 L 248.3 285.7 L 256.2 285.5 L 264.0 285.3 L 271.8 285.1 L 279.7 284.9 L 287.5 284.7 L 295.4 284.5 L 303.2 284.3 L 311.1 284.0 L 318.9 283.8 L 326.8 283.5 L 334.6 283.2 L 342.5 283.0 L 350.3 282.7 L 358.2 282.4 L 366.0 282.1 L 373.8 281.7 L 381.7 281.4 L 389.5 281.0 L 397.4 280.7 L 405.2 280.3 L 413.1 279.9 L 420.9 279.5 L 428.8 279.0 L 436.6 278.6 L 444.5 278.1 L 452.3 277.6 L 460.2 277.1 L 468.0 276.5 L 475.8 276.0 L 483.7 275.4 L 491.5 274.8 L 499.4 274.2 L 507.2 273.5 L 515.1 272.8 L 522.9 272.1 L 530.8 271.4 L 538.6 270.6 L 546.5 269.8 L 554.3 269.0 L 562.2 268.1 L 570.0 267.2" class="curve" stroke="#ef4444" stroke-dasharray="6,3"/>
  <path d="M 60.0 290.0 L 67.8 290.0 L 75.7 290.0 L 83.5 290.0 L 91.4 290.0 L 99.2 290.0 L 107.1 290.0 L 114.9 290.0 L 122.8 290.0 L 130.6 290.0 L 138.5 290.0 L 146.3 290.0 L 154.2 290.0 L 162.0 290.0 L 169.8 290.0 L 177.7 290.0 L 185.5 290.0 L 193.4 290.0 L 201.2 290.0 L 209.1 290.0 L 216.9 290.0 L 224.8 290.0 L 232.6 290.0 L 240.5 290.0 L 248.3 261.0 L 256.2 258.1 L 264.0 255.0 L 271.8 251.8 L 279.7 248.4 L 287.5 244.8 L 295.4 241.1 L 303.2 237.3 L 311.1 233.2 L 318.9 229.0 L 326.8 224.7 L 334.6 220.2 L 342.5 215.6 L 350.3 210.8 L 358.2 205.9 L 366.0 200.8 L 373.8 195.6 L 381.7 190.2 L 389.5 184.8 L 397.4 179.2 L 405.2 173.4 L 413.1 167.6 L 420.9 161.6 L 428.8 155.5 L 436.6 149.4 L 444.5 143.0 L 452.3 136.6 L 460.2 130.1 L 468.0 123.5 L 475.8 116.8 L 483.7 110.0 L 491.5 103.1 L 499.4 96.1 L 507.2 89.1 L 515.1 81.9 L 522.9 74.7 L 530.8 67.4 L 538.6 60.1 L 546.5 52.7 L 554.3 45.2 L 562.2 37.6 L 570.0 30.0" class="curve" stroke="#2563eb"/>
  
  <!-- Legend -->
  <line x1="380" y1="42" x2="410" y2="42" stroke="#ef4444" stroke-width="2.2" stroke-dasharray="6,3"/>
  <text x="416" y="46" font-size="11" fill="#374151">Q10 (ED default)</text>
  <line x1="380" y1="60" x2="410" y2="60" stroke="#2563eb" stroke-width="2.2"/>
  <text x="416" y="64" font-size="11" fill="#374151">Lloyd-Taylor (1994)</text>
  
  <!-- Axis labels -->
  <text x="300.0" y="334" class="axis-label" text-anchor="middle">Temperature (°C)</text>
  <text x="16" y="170.0" class="axis-label" text-anchor="middle" transform="rotate(-90, 16, 170.0)">Decomposition rate (normalized)</text>
  
  <!-- Annotation: cold region -->
  <rect x="99.23076923076923" y="35" width="156.92307692307696" height="250" fill="#eff6ff" fill-opacity="0.3" rx="4"/>
  <text x="177.6923076923077" y="50" font-size="9.5" fill="#1e40af" text-anchor="middle" font-weight="500">boreal / arctic</text>
  <text x="177.6923076923077" y="62" font-size="8.5" fill="#3b82f6" text-anchor="middle">LT flattens appropriately</text>
</svg>